HIERARCHY
ROOT Hips
{
	OFFSET -0.001795 -0.223333 0.028219
	CHANNELS 6 Xposition Yposition Zposition Zrotation Yrotation Xrotation 
	JOINT LeftUpLeg
	{
		OFFSET 0.069520 -0.091406 -0.006815
		CHANNELS 3 Zrotation Yrotation Xrotation
		JOINT LeftLeg
		{
			OFFSET 0.034277 -0.375199 -0.004496
			CHANNELS 3 Zrotation Yrotation Xrotation
			JOINT LeftFoot
			{
				OFFSET -0.013596 -0.397961 -0.043693
				CHANNELS 3 Zrotation Yrotation Xrotation
				JOINT LeftToe
				{
					OFFSET 0.026358 -0.055791 0.119288
					CHANNELS 3 Zrotation Yrotation Xrotation
					End Site
					{
						OFFSET 0.000000 0.000000 0.000000
					}
				}
			}
		}
	}
	JOINT RightUpLeg
	{
		OFFSET -0.067670 -0.090522 -0.004320
		CHANNELS 3 Zrotation Yrotation Xrotation
		JOINT RightLeg
		{
			OFFSET -0.038290 -0.382569 -0.008850
			CHANNELS 3 Zrotation Yrotation Xrotation
			JOINT RightFoot
			{
				OFFSET 0.015774 -0.398415 -0.042312
				CHANNELS 3 Zrotation Yrotation Xrotation
				JOINT RightToe
				{
					OFFSET -0.025372 -0.048144 0.123348
					CHANNELS 3 Zrotation Yrotation Xrotation
					End Site
					{
						OFFSET 0.000000 0.000000 0.000000
					}
				}
			}
		}
	}
	JOINT Spine
	{
		OFFSET -0.002533 0.108963 -0.026696
		CHANNELS 3 Zrotation Yrotation Xrotation
		JOINT Spine1
		{
			OFFSET 0.005487 0.135180 0.001092
			CHANNELS 3 Zrotation Yrotation Xrotation
			JOINT Spine2
			{
				OFFSET 0.001457 0.052922 0.025425
				CHANNELS 3 Zrotation Yrotation Xrotation
				JOINT Neck
				{
					OFFSET -0.002778 0.213870 -0.042857
					CHANNELS 3 Zrotation Yrotation Xrotation
					JOINT Head
					{
						OFFSET 0.005152 0.064970 0.051349
						CHANNELS 3 Zrotation Yrotation Xrotation
						End Site
						{
							OFFSET 0.000000 0.000000 0.000000
						}
					}
				}
				JOINT LeftShoulder
				{
					OFFSET 0.078845 0.121749 -0.034090
					CHANNELS 3 Zrotation Yrotation Xrotation
					JOINT LeftArm
					{
						OFFSET 0.090977 0.030469 -0.008868
						CHANNELS 3 Zrotation Yrotation Xrotation
						JOINT LeftForeArm
						{
							OFFSET 0.259612 -0.012772 -0.027456
							CHANNELS 3 Zrotation Yrotation Xrotation
							JOINT LeftHand
							{
								OFFSET 0.249234 0.008986 -0.001171
								CHANNELS 3 Zrotation Yrotation Xrotation
								End Site
								{
									OFFSET 0.000000 0.000000 0.000000
								}
							}
						}
					}
				}
				JOINT RightShoulder
				{
					OFFSET -0.081759 0.118833 -0.038615
					CHANNELS 3 Zrotation Yrotation Xrotation
					JOINT RightArm
					{
						OFFSET -0.096012 0.032551 -0.009143
						CHANNELS 3 Zrotation Yrotation Xrotation
						JOINT RightForeArm
						{
							OFFSET -0.253742 -0.013329 -0.021401
							CHANNELS 3 Zrotation Yrotation Xrotation
							JOINT RightHand
							{
								OFFSET -0.255298 0.007772 -0.005559
								CHANNELS 3 Zrotation Yrotation Xrotation
								End Site
								{
									OFFSET 0.000000 0.000000 0.000000
								}
							}
						}
					}
				}
			}
		}
	}
}
MOTION
Frames: 16
Frame Time: 0.050000
-0.023492 0.966590 0.009251 -14.669259 -38.311772 7.628452 6.814928 1.294944 8.323613 -9.818171 1.770160 -12.562580 18.392489 28.315458 24.067521 0.000000 0.000000 0.000000 -27.486226 3.410062 -20.175602 116.179839 -36.281163 27.604131 -56.353892 -52.041783 62.618060 0.000000 0.000000 0.000000 -5.049790 0.267868 4.954963 12.145009 0.295396 -33.826543 8.068616 8.374868 24.654001 2.413813 -2.309193 -21.501669 0.000000 0.000000 0.000000 5.379979 19.115078 -7.712108 -4.258386 -3.897096 -0.992778 31.248184 -12.893259 -0.942813 0.000000 0.000000 0.000000 -7.423605 -13.634703 -2.038557 3.661949 3.894813 -0.426903 -21.234776 1.125575 -0.720687 0.000000 0.000000 0.000000 
-0.022865 0.966668 0.008798 -14.337482 -38.804747 7.380739 6.198206 1.289049 8.343940 -9.351373 1.722709 -12.762807 18.956205 28.691823 25.206308 0.000000 0.000000 0.000000 -27.329590 3.425088 -20.515701 115.954988 -35.982423 27.807347 -58.224771 -52.249373 64.742914 0.000000 0.000000 0.000000 -5.135917 0.292781 5.516814 11.973606 0.383344 -34.084917 7.950972 8.695646 24.894677 2.854834 -2.586481 -21.156044 0.000000 0.000000 0.000000 5.049306 18.877867 -7.645745 -3.799687 -4.212516 -0.942480 31.037592 -12.702514 -0.935865 0.000000 0.000000 0.000000 -7.738014 -13.019368 -1.763813 3.563758 3.977996 -0.427167 -18.951566 0.692019 -0.511205 0.000000 0.000000 0.000000 
-0.022259 0.966422 0.008259 -14.034330 -39.224454 7.285406 5.648953 1.269621 8.251006 -9.252899 1.726874 -12.898153 19.633928 29.507330 25.584162 0.000000 0.000000 0.000000 -27.266095 3.459595 -20.898426 115.180362 -35.500008 28.277608 -59.384782 -52.726969 65.349666 0.000000 0.000000 0.000000 -5.054102 0.291922 5.730155 11.822619 0.356418 -33.933457 7.632946 9.309533 24.870631 3.188223 -2.752941 -21.048030 0.000000 0.000000 0.000000 4.975711 18.676839 -7.553061 -3.844546 -4.552054 -0.964672 31.095885 -12.451734 -0.922833 0.000000 0.000000 0.000000 -7.485362 -12.332025 -1.669631 3.739675 4.221052 -0.448414 -17.543557 0.121359 -0.341600 0.000000 0.000000 0.000000 
-0.021619 0.965439 0.007675 -13.544041 -39.482262 7.098592 4.861215 1.247724 8.242693 -8.749805 1.669293 -13.005491 19.519498 29.549962 25.050730 0.000000 0.000000 0.000000 -27.353093 3.494367 -20.715274 113.664443 -34.662683 29.014702 -59.133274 -53.042939 64.483418 0.000000 0.000000 0.000000 -4.987067 0.293002 5.954501 11.182873 0.436767 -34.134155 7.582633 9.446678 25.023306 3.512058 -2.964156 -20.948688 0.000000 0.000000 0.000000 4.850053 18.692864 -7.576411 -4.208736 -5.070139 -1.040003 31.462566 -12.656688 -0.947798 0.000000 0.000000 0.000000 -7.479294 -11.703783 -1.486589 3.958118 4.427275 -0.468851 -16.015007 -0.193004 -0.237948 0.000000 0.000000 0.000000 
-0.020992 0.963967 0.006847 -13.244077 -40.162659 7.116490 4.239158 1.241447 8.215022 -8.450065 1.658707 -13.270611 19.814767 30.051281 24.817570 0.000000 0.000000 0.000000 -27.256729 3.558962 -21.114749 111.762053 -34.228721 30.453904 -58.606828 -53.505592 62.955191 0.000000 0.000000 0.000000 -5.003774 0.313373 6.284970 11.061257 0.549844 -34.397314 7.441462 9.828690 25.271391 3.581195 -3.011181 -21.181555 0.000000 0.000000 0.000000 4.479213 18.748006 -7.635995 -4.481106 -4.898819 -1.077872 31.851073 -12.777024 -0.981926 0.000000 0.000000 0.000000 -7.238876 -11.118410 -1.394490 4.141391 4.734344 -0.491099 -15.112543 -0.087805 -0.215697 0.000000 0.000000 0.000000 
-0.020442 0.962187 0.005758 -12.748076 -40.425763 7.119182 3.596914 1.164756 7.764478 -7.978368 1.598877 -13.110571 19.677230 29.989988 24.377639 0.000000 0.000000 0.000000 -27.291260 3.598780 -20.967231 109.664092 -32.952249 31.324697 -56.963754 -53.199777 61.444374 0.000000 0.000000 0.000000 -5.069633 0.344493 6.734021 10.751689 0.654360 -34.753825 7.131410 9.830694 25.243332 3.763966 -3.120032 -21.448836 0.000000 0.000000 0.000000 3.380965 18.873579 -7.758972 -4.777212 -4.757010 -1.132551 32.780284 -14.085765 -1.318872 0.000000 0.000000 0.000000 -6.206495 -10.698464 -1.592453 4.119532 4.925694 -0.492818 -15.256663 0.663720 -0.302057 0.000000 0.000000 0.000000 
-0.020374 0.960595 0.004291 -12.172686 -41.002882 7.009876 2.946901 1.167526 7.825015 -7.584902 1.587163 -13.669181 19.454820 29.667868 24.311691 0.000000 0.000000 0.000000 -27.409617 3.670182 -21.268503 107.696043 -31.913503 32.314854 -55.825746 -53.281044 59.791092 0.000000 0.000000 0.000000 -5.220933 0.373682 6.788649 10.346365 0.576342 -34.339391 7.081207 9.910847 25.067119 3.391788 -2.895014 -22.064970 0.000000 0.000000 0.000000 2.431683 19.120626 -7.928244 -5.497879 -3.946081 -1.219408 33.520566 -15.822542 -1.721748 0.000000 0.000000 0.000000 -5.371029 -10.383105 -1.739664 5.048372 4.855450 -0.536673 -16.035353 2.278536 -0.540727 0.000000 0.000000 0.000000 
-0.021194 0.959746 0.002582 -11.609439 -40.578036 6.882090 2.791541 1.139476 7.720625 -7.835549 1.627515 -14.086299 19.094860 29.294421 23.972658 0.000000 0.000000 0.000000 -27.301835 3.627333 -20.725544 106.269497 -30.147306 32.015642 -55.942706 -53.486426 59.740823 0.000000 0.000000 0.000000 -5.271136 0.387893 6.931717 9.496363 0.592739 -34.374459 7.071570 9.438321 25.267403 2.760462 -2.557282 -22.307510 0.000000 0.000000 0.000000 1.406861 19.431965 -8.120046 -5.982753 -4.081583 -1.308036 33.586127 -17.815388 -2.175288 0.000000 0.000000 0.000000 -3.999976 -10.321011 -2.162835 5.820981 4.128304 -0.563467 -16.863901 3.456135 -0.747846 0.000000 0.000000 0.000000 
-0.022888 0.959190 0.000521 -11.372242 -40.603697 6.819641 2.711409 1.193277 8.088127 -7.806165 1.669370 -14.942959 18.959193 29.111503 23.998561 0.000000 0.000000 0.000000 -26.789851 3.583173 -20.427750 104.912100 -28.693346 32.124797 -55.286642 -53.338378 59.176618 0.000000 0.000000 0.000000 -5.294663 0.388271 6.840327 9.063375 0.365341 -33.454078 7.072042 9.506436 24.744328 2.185193 -2.196819 -22.492834 0.000000 0.000000 0.000000 0.103117 19.372162 -8.145555 -6.209011 -3.781972 -1.337886 32.874141 -19.292618 -2.508633 0.000000 0.000000 0.000000 -2.677028 -10.030968 -2.499407 6.644948 3.724353 -0.599500 -17.731664 5.316327 -1.071345 0.000000 0.000000 0.000000 
-0.025315 0.959045 -0.001695 -11.128014 -40.223018 6.695076 2.641090 1.188620 8.109628 -7.550921 1.640600 -15.117337 18.760929 28.898693 23.832867 0.000000 0.000000 0.000000 -26.325089 3.514357 -19.429613 103.424146 -27.447658 32.250968 -54.581282 -53.347997 58.327867 0.000000 0.000000 0.000000 -5.732168 0.453851 6.975944 8.766271 0.278137 -33.125084 6.924829 9.443104 24.796495 1.559165 -1.824757 -22.245900 0.000000 0.000000 0.000000 -1.391867 19.481241 -8.271865 -6.208218 -4.059063 -1.363032 32.378994 -20.640346 -2.846952 0.000000 0.000000 0.000000 -0.659186 -9.822300 -3.117629 7.654504 2.555341 -0.668001 -18.522503 7.339554 -1.432910 0.000000 0.000000 0.000000 
-0.028208 0.958402 -0.003644 -10.968139 -39.967548 6.581348 2.821866 1.233691 8.415404 -7.662386 1.675091 -15.606478 18.499031 28.661948 23.562376 0.000000 0.000000 0.000000 -25.974900 3.453128 -18.931085 102.463702 -26.944030 32.511804 -54.017638 -52.816138 58.581399 0.000000 0.000000 0.000000 -6.316316 0.546117 7.147404 8.805358 0.123499 -32.507871 6.743712 9.466780 24.262225 1.357303 -1.660394 -22.365779 0.000000 0.000000 0.000000 -2.630600 19.622387 -8.394453 -6.157463 -4.341013 -1.363882 31.363591 -21.577493 -3.008822 0.000000 0.000000 0.000000 0.458042 -9.652229 -3.433492 9.470132 1.707473 -0.827230 -19.585513 9.195061 -1.841017 0.000000 0.000000 0.000000 
-0.031459 0.958099 -0.004855 -10.657085 -39.554235 6.521363 2.899640 1.228382 8.428167 -7.771782 1.688428 -15.813709 18.211646 28.346061 23.327197 0.000000 0.000000 0.000000 -25.418396 3.373846 -18.119438 101.964079 -26.091146 32.175685 -54.607281 -53.054483 59.048775 0.000000 0.000000 0.000000 -6.788658 0.616498 7.168346 8.717835 0.069237 -32.340019 6.381363 9.262983 24.272501 0.823910 -1.340568 -22.639757 0.000000 0.000000 0.000000 -4.122974 19.567401 -8.459546 -6.103672 -4.223847 -1.365715 30.437905 -22.832223 -3.233614 0.000000 0.000000 0.000000 1.545389 -9.583629 -3.788583 11.411090 0.995675 -1.030475 -20.963521 10.946761 -2.327151 0.000000 0.000000 0.000000 
-0.034840 0.958025 -0.005216 -10.509029 -39.251896 6.298021 3.044479 1.262651 8.673990 -7.810947 1.682216 -15.812003 17.999559 28.154453 23.103809 0.000000 0.000000 0.000000 -25.119761 3.329435 -17.024643 100.430539 -25.975290 33.092929 -53.930769 -52.941600 58.319041 0.000000 0.000000 0.000000 -7.324142 0.694886 7.184328 8.356033 -0.084599 -31.599495 6.478902 9.321795 23.782882 0.373558 -1.035478 -22.364712 0.000000 0.000000 0.000000 -5.415914 19.660872 -8.587676 -6.134956 -4.368192 -1.370201 30.094822 -24.168433 -3.530879 0.000000 0.000000 0.000000 2.753291 -9.339146 -4.103635 13.030110 -0.215534 -1.248571 -22.193262 12.583683 -2.795141 0.000000 0.000000 0.000000 
-0.038164 0.957974 -0.005002 -10.244047 -38.628764 5.878904 3.167107 1.327789 9.158327 -7.921877 1.685052 -15.980134 17.514608 27.644395 22.750845 0.000000 0.000000 0.000000 -24.997073 3.292036 -15.658360 99.080212 -25.950088 33.757099 -52.276238 -52.426850 56.976362 0.000000 0.000000 0.000000 -7.771594 0.769390 7.418272 8.150642 -0.064655 -31.727412 6.182421 8.759850 24.302334 -0.208097 -0.738430 -22.202978 0.000000 0.000000 0.000000 -6.474372 19.830233 -8.742671 -6.218589 -4.728542 -1.410164 30.309366 -25.428952 -3.848267 0.000000 0.000000 0.000000 3.825733 -9.162572 -4.429408 14.646526 -1.177834 -1.502219 -23.447378 14.012726 -3.296735 0.000000 0.000000 0.000000 
-0.040897 0.958037 -0.004667 -10.213958 -37.981795 5.835872 3.337314 1.302384 9.081897 -7.812673 1.635224 -15.674977 17.224996 27.377767 22.363374 0.000000 0.000000 0.000000 -24.282134 3.170451 -14.697622 96.859748 -25.855723 35.001160 -51.518124 -52.762024 55.217798 0.000000 0.000000 0.000000 -8.110939 0.835177 7.645614 7.758344 -0.126096 -31.339405 6.216759 8.475371 24.082667 -0.364381 -0.619535 -22.366426 0.000000 0.000000 0.000000 -7.474741 19.869948 -8.833264 -6.198688 -5.159791 -1.417537 31.094083 -27.160398 -4.406546 0.000000 0.000000 0.000000 5.002489 -9.357551 -4.914908 15.752425 -1.933713 -1.685375 -24.281508 15.502549 -3.741109 0.000000 0.000000 0.000000 
-0.042806 0.957686 -0.004373 -10.211557 -37.258259 5.718592 3.577029 1.291139 9.099760 -7.838550 1.603490 -15.429182 16.847662 27.062157 21.791459 0.000000 0.000000 0.000000 -23.747054 3.062034 -13.841259 95.209828 -26.004622 35.981023 -49.938529 -52.378654 53.559289 0.000000 0.000000 0.000000 -8.486541 0.918460 8.056963 7.611147 -0.121980 -31.398481 6.036964 7.683499 24.581733 -0.498135 -0.600198 -22.653376 0.000000 0.000000 0.000000 -8.705380 20.296260 -9.131378 -6.137947 -5.770847 -1.451350 32.677842 -28.681807 -5.066699 0.000000 0.000000 0.000000 5.944040 -9.428950 -5.316510 16.792898 -1.943676 -1.815882 -24.387276 16.479513 -3.988070 0.000000 0.000000 0.000000 
